# xmcd
#
# Track frame offsets:
#	150
#	14625
#	27722
#	40915
#	55277
#	66000
#	79795
#	91707
#	104875
#	119405
#	134117
#	146090
#	160170
#	174367
#	188207
#	202107
#	213230
#	224700
#	234282
#	245252
#
# Disc length: 3429 seconds
#
# Revision: 1
# Processed by: cddbd v1.5.1PL0 Copyright (c) Steve Scherf et al.
# Submitted via: audiograbber 1.82.02
#
DISCID=320d6314
DTITLE=Various Artist - Roots Of Doo-Wop, Savoy Vocal Groups
DYEAR=1900
DGENRE=Doo-Wop
TTITLE0=Ravens - Lilacs In The Rain
TTITLE1=Syncopators - Out In The Cold Again
TTITLE2=Ravens - Count Every Star
TTITLE3=Four Barons - Lemon Squeezer
TTITLE4=Four Buddies - I Will Wait
TTITLE5=Four Buddies - My Summers Gone
TTITLE6=Falcons - How Blind Can You Be
TTITLE7=Falcons - You're The Beating Of My Heart
TTITLE8=Marshall Brothers - Who'll Be The Fool From Now On
TTITLE9=Marshall Brothers - I Didn't Know
TTITLE10=Carols - Fifty Million Women
TTITLE11=Joe Van Loan and His Quartet - Until I Fell For You
TTITLE12=Dreams - Darlene
TTITLE13=Earls - Believe Me My Love
TTITLE14=Five Embers - Please Come Back Home
TTITLE15=Roamers - Chop Chop Ching A Ling
TTITLE16=Emeralds (Luther Bond and The) - It's Written In The Stars
TTITLE17=Duponts (Little Anthony and The) - You
TTITLE18=Harps (Little David and The) - Wah Diddy Wah
TTITLE19=Harps (Little David and The) - I Won't Cry
EXTD=
EXTT0=
EXTT1=
EXTT2=
EXTT3=
EXTT4=
EXTT5=
EXTT6=
EXTT7=
EXTT8=
EXTT9=
EXTT10=
EXTT11=
EXTT12=
EXTT13=
EXTT14=
EXTT15=
EXTT16=
EXTT17=
EXTT18=
EXTT19=
PLAYORDER=
